DataType=double
version=3
OpenSimVersion=4.5
endheader
time	pelvis_tilt	pelvis_list	pelvis_rotation	pelvis_tx	pelvis_ty	pelvis_tz	hip_flexion_r	hip_adduction_r	hip_rotation_r	knee_angle_r	knee_frontal_r	knee_adduction_r	knee_angle_r_beta	ankle_angle_r	subtalar_angle_r	mtp_angle_r	hip_flexion_l	hip_adduction_l	hip_rotation_l	knee_angle_l	knee_frontal_l	knee_adduction_l	knee_angle_l_beta	ankle_angle_l	subtalar_angle_l	mtp_angle_l	lumbar_extension	lumbar_bending	lumbar_rotation	arm_flex_r	arm_add_r	arm_rot_r	elbow_flex_r	pro_sup_r	wrist_flex_r	wrist_dev_r	arm_flex_l	arm_add_l	arm_rot_l	elbow_flex_l	pro_sup_l	wrist_flex_l	wrist_dev_l
2.235	-0.1408799699298831	0.05801541057648592	0.007822600217523542	0.8145729418273747	0.9502481739949208	0.4838029030730464	0.5521110627814746	-0.08874936036486203	0.07797620884801522	0.1282195507393972	0	0	0.1282195507393972	0.09491176910130864	0.03227682823596478	-0.3673507357391959	-0.07336855192347808	0.06045885283619204	0.07052359554800547	0.2966123969085865	0	0	0.2966123969085865	0.1792171623679342	0.04828815494614686	-0.5248348792098936	-0.04550076010040999	-0.02490877369814436	-0.02084645121248909	-0.2611313405157869	-0.2158653181986069	-0.1147547591487214	0.5629052953112841	1.57079633	0	0	0.1071095105954837	-0.4649801817157985	0.1138838700799013	1.169977069352979	1.57079633	0	0
2.24	-0.1390500691659577	0.0534934043493971	0.006522284385171521	0.815538560665285	0.9496738107144974	0.4847332125067407	0.5508883582717622	-0.08219182057438258	0.07533469709914239	0.1410785632275842	0	0	0.1410785632275842	0.08836589908646694	0.03211356647622581	-0.3614189879597737	-0.07512305695635851	0.05333165165551501	0.06375645922755549	0.3114757469352369	0	0	0.3114757469352369	0.17181881882183	0.04682435980202472	-0.5462896480448844	-0.04632770640053388	-0.01976712622376691	-0.01776480502306162	-0.2603267784924986	-0.2178623346114166	-0.11494889498351	0.5634302581013069	1.57079633	0	0	0.1044079186323448	-0.4623836333236561	0.1116155450497135	1.173303067231978	1.57079633	0	0
2.245	-0.1371359146402002	0.04887378693731114	0.00527801839253988	0.816519899501625	0.9491039542358232	0.4856739124737333	0.5495866132011049	-0.07554099502100821	0.07261644634210397	0.154226503886836	0	0	0.154226503886836	0.08178694252687158	0.03184203551783175	-0.355475609747574	-0.07678568400814939	0.04602431677946085	0.05695010107207304	0.3268739319367173	0	0	0.3268739319367173	0.1638783714192692	0.04510276998137365	-0.5676405481192464	-0.04722870427527767	-0.01452313053405941	-0.01470795557797921	-0.2594724448966758	-0.2198859240259123	-0.1151216553255218	0.5639914969616351	1.57079633	0	0	0.1016513385875691	-0.4597464552858777	0.1093429105362531	1.176601681833457	1.57079633	0	0
2.25	-0.1351279616851507	0.04416642765407567	0.004121837198986429	0.8175124903731507	0.9485453102408646	0.4866199456320179	0.548181524447668	-0.06882633227315263	0.06982452992533122	0.1676285966090421	0	0	0.1676285966090421	0.07523634531968706	0.03143521397074175	-0.3495828960023791	-0.07829125290227612	0.03854852199068043	0.05016194497119834	0.3428788215000835	0	0	0.3428788215000835	0.1553102670136124	0.04307663591022123	-0.5886226198786519	-0.04822099744631982	-0.009191484370155323	-0.01171339621669279	-0.2585524762148653	-0.2219300591351171	-0.1152609977901075	0.564598549065857	1.57079633	0	0	0.09884550085234195	-0.457076661105127	0.1070866547205366	1.179824059341999	1.57079633	0	0
2.255	-0.1330184978713477	0.0393814972382994	0.003084225009239919	0.8185117878016455	0.9480043825989519	0.4875666793559672	0.5466495116242529	-0.06207567190412491	0.06696455288182883	0.1812493412881889	0	0	0.1812493412881889	0.06877700730304129	0.03086540858096066	-0.3437926014033763	-0.07956907360302518	0.03091691921879496	0.04345051157086891	0.3595684676422725	0	0	0.3595684676422725	0.1460304986107133	0.0406983629557591	-0.6089620911726714	-0.04931986136312518	-0.003787620589383069	-0.008816621719577967	-0.2575498668523597	-0.2239890270639548	-0.1153550608322577	0.5652619966919062	1.57079633	0	0	0.09599502322576384	-0.4543813079025147	0.1048664530738522	1.182920384477684	1.57079633	0	0
2.26	-0.130802391896786	0.03452982088677978	0.002193096352594502	0.8195131724957856	0.9474873371842608	0.4885099890106069	0.544968635673039	-0.05531502588119196	0.06404524350686402	0.1950517438459761	0	0	0.1950517438459761	0.06247241324872874	0.03010496797137775	-0.3381435490019418	-0.08054401144012113	0.02314388071749304	0.03687465124127828	0.3770236242125107	0	0	0.3770236242125107	0.1359604825678213	0.03792107605834362	-0.6283805012353341	-0.05053772852325163	0.001671938187461378	-0.00605011932052339	-0.256446897942865	-0.2260573701681251	-0.1153925690222037	0.5659932370896279	1.57079633	0	0	0.09310344714667323	-0.4516664758514097	0.1027005588351353	1.18584073172391	1.57079633	0	0
2.265	-0.128477699969888	0.02962323648557025	0.001472951209340019	0.820511957789605	0.9469998877271786	0.4894463072623041	0.5431193342219969	-0.04856852955172201	0.06107885650878206	0.2089965359537724	0	0	0.2089965359537724	0.05638575094628072	0.02912712595809645	-0.332660173744332	-0.08113779352822076	0.01524625175134571	0.0304928958475925	0.3953240303678108	0	0	0.3953240303678108	0.1250309042493635	0.03470024053738859	-0.6465992642132671	-0.05188348498485819	0.007169238621611694	-0.003442556443208981	-0.2552255803276531	-0.2281298281771832	-0.1153631963529928	0.5668042343136022	1.57079633	0	0	0.09017333505348421	-0.4489372861224081	0.1006054688687301	1.188535893558885	1.57079633	0	0
2.27	-0.1260460991338555	0.02467492980376886	0.0009442303351095051	0.8215034015703735	0.9465472071270071	0.4903726395644679	0.5410849415876249	-0.0418585447750756	0.05808136000844935	0.2230414516188477	0	0	0.2230414516188477	0.05057902790159365	0.02790694154580742	-0.3273520335306266	-0.08127052366364806	0.007244062814672117	0.02436291942094072	0.4145446274908942	0	0	0.4145446274908942	0.1131853685289302	0.03099529096660741	-0.6633446388579876	-0.05336196856283604	0.01268459963212847	-0.001018186919024149	-0.2538680950977618	-0.2302012887198849	-0.1152578754955295	0.5677072604055092	1.57079633	0	0	0.0872064182847386	-0.4461979529745133	0.09859567751147598	1.19095816338087	1.57079633	0	0
2.275	-0.1235131323182092	0.01969971759903291	0.000622873857128706	0.8224827257606488	0.9461338660172887	0.4912865492027395	0.5388519835156427	-0.03520587850319511	0.05507240213386719	0.237140619007858	0	0	0.237140619007858	0.04511219056654929	0.02642227946011227	-0.3222142394044064	-0.08086235502123257	-0.0008388530234158149	0.01854106191390731	0.4347518870433058	0	0	0.4347518870433058	0.1003837140766881	0.02677124301870774	-0.6783530250483784	-0.05497368075562856	0.01819638866575227	0.001203526620619128	-0.2523572164236552	-0.2322667505868843	-0.1150690485883332	0.5687146298450113	1.57079633	0	0	0.08420378221574149	-0.4434518641572534	0.09668352659189174	1.193062052062762	1.57079633	0	0
2.28	-0.1208882611971545	0.01471425267696305	0.0005200684200225014	0.8234451447989156	0.9457637990369246	0.492186117618412	0.5364102524322075	-0.02863006990761403	0.0520750726297271	0.2512441146172504	0	0	0.2512441146172504	0.0400422468314609	0.02465476595389422	-0.3172286997500908	-0.07983526040790467	-0.008974389856733283	0.01308184542807809	0.4560004194325233	0	0	0.4560004194325233	0.08660488184909221	0.02200028239059744	-0.6913764497969288	-0.05671471124840743	0.02368089578194317	0.003208094969805141	-0.2506767030691534	-0.2343213013395719	-0.1147908615111496	0.5698384286064702	1.57079633	0	0	0.0811660743514637	-0.4407016827781861	0.09487915475962015	1.194804919489376	1.57079633	0	0
2.285	-0.1181847324421959	0.009737131879833043	0.0006421584971316469	0.8243859037866106	0.9454402978669776	0.4930698867181231	0.5337526812543159	-0.02214969948922628	0.04911548737529077	0.2652977153317291	0	0	0.2652977153317291	0.03542239552707845	0.02259065913449353	-0.3123660351841738	-0.07811483766587635	-0.01712988757813695	0.008037416465800255	0.4783300060509079	0	0	0.4783300060509079	0.07184926026532988	0.01666332171391474	-0.7021880545364757	-0.05857686355690103	0.02911232171285189	0.00498601967602749	-0.2488116472886977	-0.2363601087396339	-0.1144193077949695	0.5710902388123215	1.57079633	0	0	0.07809372105359852	-0.437949463572296	0.09319054385452899	1.196147507017236	1.57079633	0	0
2.29	-0.1154192730996472	0.004788895958518272	0.0009906965655360981	0.8253003258265434	0.9451660284714883	0.4939367894999362	0.5308750459834886	-0.01578268141428824	0.04622222723616282	0.279242872984621	0	0	0.279242872984621	0.03130117294485277	0.02022158498939364	-0.3075879984071438	-0.07563208882900196	-0.02526806514554152	0.003456882684290057	0.5017631526700977	0	0	0.5017631526700977	0.05614045389683016	0.01075148645324664	-0.7105873722184639	-0.06054796044243682	0.03446288753430386	0.006532676154397903	-0.2467487729976104	-0.2383784247306034	-0.1139523297759147	0.5724808629010278	1.57079633	0	0	0.07498713903137083	-0.4351967764357403	0.09162365422688541	1.197054363129527	1.57079633	0	0
2.295	-0.1126116402178339	-0.0001080821559007053	0.001562611180810644	0.8261838667741109	0.9449430684987026	0.4947860742402685	0.5277755378024834	-0.00954651134085974	0.04342566076255197	0.2930169253110042	0	0	0.2930169253110042	0.0277216327197788	0.0175451040555178	-0.3028502241436354	-0.07232511271141057	-0.0333471772237669	-0.0006144444435128502	0.5263032174241873	0	0	0.5263032174241873	0.0395264358109927	0.004267453938168214	-0.7164051951641732	-0.06261229932596875	0.03970306603670219	0.007848087524156194	-0.2444766787050079	-0.2403716008590637	-0.1133898833114643	0.574020056620089	1.57079633	0	0	0.0718469287065655	-0.4324448300163022	0.09018263482534657	1.197494160993183	1.57079633	0	0
2.3	-0.1097840555335539	-0.004929816575035223	0.002350476784862171	0.82703217453787	0.9447729599356538	0.4956172264713328	0.5244542507083318	-0.003458453353424215	0.04075717822775288	0.3065535461423303	0	0	0.3065535461423303	0.02472058027133554	0.01456508658385876	-0.2981051359990392	-0.06814065169509209	-0.0413213881481547	-0.004135861969581552	0.5519331349855581	0	0	0.5519331349855581	0.02208005039056331	-0.002773450329221674	-0.7195078705275528	-0.06475122383626905	0.04480192710569327	0.008936607478273137	-0.241986023493635	-0.2423351138946563	-0.1127339693805517	0.5757162851157237	1.57079633	0	0	0.06867403825848165	-0.4296945886256	0.0888700883183024	1.197439911722063	1.57079633	0	0
